<?xml version="1.0" standalone="no"?>
<!DOCTYPE svg PUBLIC "-//W3C//DTD SVG 20010904//EN"
 "http://www.w3.org/TR/2001/REC-SVG-20010904/DTD/svg10.dtd">
<svg version="1.0" xmlns="http://www.w3.org/2000/svg"
 width="1080.000000pt" height="1080.000000pt" viewBox="0 0 1080.000000 1080.000000"
 preserveAspectRatio="xMidYMid meet">
<metadata>
Created by potrace 1.11, written by Peter Selinger 2001-2013
</metadata>
<g transform="translate(0.000000,1080.000000) scale(0.100000,-0.100000)"
fill="#000000" stroke="none">
<path d="M5361 10673 c-38 -71 -938 -1714 -2000 -3652 -1062 -1938 -1929
-3526 -1927 -3529 17 -16 652 -358 658 -353 3 3 905 1646 2003 3650 1616 2950
1994 3646 1983 3656 -10 9 -520 290 -625 344 -21 10 -26 4 -92 -116z"/>
<path d="M6651 4139 c-1140 -2080 -2071 -3782 -2069 -3783 15 -11 644 -352
652 -354 8 -1 4130 7504 4144 7547 2 5 -131 82 -295 171 -164 89 -312 171
-329 181 l-32 19 -2071 -3781z"/>
<path d="M6296 7579 c-3 -13 -27 -250 -55 -527 -27 -277 -51 -505 -53 -507 -3
-4 -1075 9 -1670 20 l-318 5 0 -375 0 -375 1565 0 c861 0 1565 2 1565 3 0 5
-1018 1768 -1024 1774 -3 3 -7 -5 -10 -18z"/>
</g>
</svg>
